<svg id="bold" height="512" viewBox="0 0 24 24" width="512" xmlns="http://www.w3.org/2000/svg"><circle cx="17" cy="17" r="1"/><circle cx="20" cy="17" r="1"/><path d="m20.158 24h-3.316c-1.073 0-1.947-.875-1.947-1.952v-.398c-1.195-1.078-1.895-2.579-1.895-4.105 0-3.057 2.468-5.545 5.5-5.545s5.5 2.488 5.5 5.545c0 1.525-.7 3.026-1.895 4.105v.397c0 1.078-.874 1.953-1.947 1.953zm-1.658-10c-1.93 0-3.5 1.59-3.5 3.545 0 1.065.561 2.127 1.499 2.84.249.189.396.484.396.796v.866l3.263-.047-.053-.818c0-.313.146-.607.396-.796.938-.714 1.499-1.776 1.499-2.841 0-1.955-1.57-3.545-3.5-3.545z"/><path d="m20.61 9.35-2.61-2.49v-5.11c0-.41-.34-.75-.75-.75h-3c-.41 0-.75.34-.75.75v.82l-2.48-2.36c-.29-.28-.75-.28-1.04 0l-9.57 9.12c-.26.24-.41.57-.41.92 0 .69.56 1.25 1.25 1.25h1.75v6.25c0 1.24 1.01 2.25 2.25 2.25h6.19c-.29-.79-.44-1.61-.44-2.45 0-4.17 3.36-7.55 7.5-7.55.87 0 1.7.15 2.48.43.02-.06.02-.12.02-.18 0-.35-.15-.68-.39-.9z"/></svg>